M48
;DRILL file {KiCad 4.0.7} date 07/18/18 10:51:46
;FORMAT={-:-/ absolute / metric / decimal}
FMAT,2
METRIC,TZ
T1C0.300
T2C0.500
T3C1.000
%
G90
G05
M71
T1
X139.4Y-109.4
X139.4Y-115.2
X139.5Y-76.6
X139.5Y-84.6
X139.5Y-90.3
X139.5Y-102.5
X139.8Y-117.1
X140.7Y-105.7
X141.3Y-95.
X142.3Y-101.1
X142.5Y-87.4
X142.5Y-112.5
X142.8Y-76.6
X143.3Y-94.1
X143.5Y-109.7
X144.05Y-111.6
X144.5Y-113.3
X144.8Y-105.3
X144.8Y-106.5
X146.5Y-121.1
X146.5Y-123.2
X147.5Y-117.3
X147.8Y-97.9
X148.2Y-109.2
X148.5Y-115.7
X148.55Y-111.6
X148.6Y-97.6
X149.6Y-108.1
X150.5Y-82.2
X151.1Y-97.6
X151.2Y-78.5
X151.3Y-85.7
X151.6Y-102.8
X152.9Y-96.3
X153.2Y-110.8
X153.4Y-120.6
X153.4Y-123.2
X153.507Y-113.307
X154.Y-97.7
X154.Y-110.8
X154.Y-112.
X154.5Y-94.3
X154.8Y-110.8
X155.8Y-98.7
X156.4Y-123.2
X157.1Y-112.6
X157.6Y-94.5
X157.7Y-97.7
X159.3Y-93.9
X160.2Y-109.8
X160.3Y-77.
X160.3Y-84.8
X160.3Y-90.3
X160.3Y-115.5
X160.3Y-123.2
X160.4Y-102.
T2
X149.5Y-105.1
X149.5Y-106.7
X150.Y-104.3
X150.Y-105.9
X150.5Y-113.8
X151.6Y-95.8
X154.6Y-105.1
X154.6Y-107.5
T3
X144.92Y-77.14
X147.46Y-77.14
X150.Y-77.14
X152.54Y-77.14
X155.08Y-77.14
T0
M30
