G04 #@! TF.FileFunction,Profile,NP*
%FSLAX46Y46*%
G04 Gerber Fmt 4.6, Leading zero omitted, Abs format (unit mm)*
G04 Created by KiCad (PCBNEW 4.0.7) date 07/18/18 10:51:39*
%MOMM*%
%LPD*%
G01*
G04 APERTURE LIST*
%ADD10C,0.100000*%
G04 APERTURE END LIST*
D10*
X161430000Y-100000000D02*
X161430000Y-89100000D01*
X138570000Y-89100000D02*
X138570000Y-100000000D01*
X160000000Y-85900000D02*
G75*
G03X160000000Y-89100000I0J-1600000D01*
G01*
X161430000Y-89100000D02*
X160000000Y-89100000D01*
X140000000Y-89100000D02*
G75*
G03X140000000Y-85900000I0J1600000D01*
G01*
X140000000Y-89100000D02*
X138570000Y-89100000D01*
X161430000Y-85900000D02*
X161430000Y-75870000D01*
X138570000Y-85900000D02*
X140000000Y-85900000D01*
X161430000Y-75870000D02*
X138570000Y-75870000D01*
X160000000Y-85900000D02*
X161430000Y-85900000D01*
X138570000Y-75870000D02*
X138570000Y-85900000D01*
X138570000Y-110900000D02*
X140000000Y-110900000D01*
X138570000Y-100000000D02*
X138570000Y-110900000D01*
X161430000Y-110900000D02*
X161430000Y-100000000D01*
X160000000Y-110900000D02*
X161430000Y-110900000D01*
X161430000Y-114100000D02*
X160000000Y-114100000D01*
X161430000Y-124130000D02*
X161430000Y-114100000D01*
X138570000Y-124130000D02*
X161430000Y-124130000D01*
X138570000Y-114100000D02*
X138570000Y-124130000D01*
X140000000Y-114100000D02*
X138570000Y-114100000D01*
X160000000Y-110900000D02*
G75*
G03X160000000Y-114100000I0J-1600000D01*
G01*
X140000000Y-114100000D02*
G75*
G03X140000000Y-110900000I0J1600000D01*
G01*
M02*
