G04 #@! TF.FileFunction,Legend,Bot*
%FSLAX46Y46*%
G04 Gerber Fmt 4.6, Leading zero omitted, Abs format (unit mm)*
G04 Created by KiCad (PCBNEW 4.0.7) date 07/18/18 10:51:39*
%MOMM*%
%LPD*%
G01*
G04 APERTURE LIST*
%ADD10C,0.100000*%
%ADD11C,0.300000*%
G04 APERTURE END LIST*
D10*
D11*
X154330000Y-79552857D02*
X154258571Y-79410000D01*
X154258571Y-79195714D01*
X154330000Y-78981429D01*
X154472857Y-78838571D01*
X154615714Y-78767143D01*
X154901429Y-78695714D01*
X155115714Y-78695714D01*
X155401429Y-78767143D01*
X155544286Y-78838571D01*
X155687143Y-78981429D01*
X155758571Y-79195714D01*
X155758571Y-79338571D01*
X155687143Y-79552857D01*
X155615714Y-79624286D01*
X155115714Y-79624286D01*
X155115714Y-79338571D01*
X155758571Y-80267143D02*
X154258571Y-80267143D01*
X155758571Y-81124286D01*
X154258571Y-81124286D01*
X155758571Y-81838572D02*
X154258571Y-81838572D01*
X154258571Y-82195715D01*
X154330000Y-82410000D01*
X154472857Y-82552858D01*
X154615714Y-82624286D01*
X154901429Y-82695715D01*
X155115714Y-82695715D01*
X155401429Y-82624286D01*
X155544286Y-82552858D01*
X155687143Y-82410000D01*
X155758571Y-82195715D01*
X155758571Y-81838572D01*
X153218571Y-79624286D02*
X152504286Y-79124286D01*
X153218571Y-78767143D02*
X151718571Y-78767143D01*
X151718571Y-79338571D01*
X151790000Y-79481429D01*
X151861429Y-79552857D01*
X152004286Y-79624286D01*
X152218571Y-79624286D01*
X152361429Y-79552857D01*
X152432857Y-79481429D01*
X152504286Y-79338571D01*
X152504286Y-78767143D01*
X153147143Y-80195714D02*
X153218571Y-80410000D01*
X153218571Y-80767143D01*
X153147143Y-80910000D01*
X153075714Y-80981429D01*
X152932857Y-81052857D01*
X152790000Y-81052857D01*
X152647143Y-80981429D01*
X152575714Y-80910000D01*
X152504286Y-80767143D01*
X152432857Y-80481429D01*
X152361429Y-80338571D01*
X152290000Y-80267143D01*
X152147143Y-80195714D01*
X152004286Y-80195714D01*
X151861429Y-80267143D01*
X151790000Y-80338571D01*
X151718571Y-80481429D01*
X151718571Y-80838571D01*
X151790000Y-81052857D01*
X151718571Y-81481428D02*
X151718571Y-82338571D01*
X153218571Y-81910000D02*
X151718571Y-81910000D01*
X149178571Y-78624286D02*
X149178571Y-79552857D01*
X149750000Y-79052857D01*
X149750000Y-79267143D01*
X149821429Y-79410000D01*
X149892857Y-79481429D01*
X150035714Y-79552857D01*
X150392857Y-79552857D01*
X150535714Y-79481429D01*
X150607143Y-79410000D01*
X150678571Y-79267143D01*
X150678571Y-78838571D01*
X150607143Y-78695714D01*
X150535714Y-78624286D01*
X149178571Y-79981428D02*
X150678571Y-80481428D01*
X149178571Y-80981428D01*
X149178571Y-81338571D02*
X149178571Y-82267142D01*
X149750000Y-81767142D01*
X149750000Y-81981428D01*
X149821429Y-82124285D01*
X149892857Y-82195714D01*
X150035714Y-82267142D01*
X150392857Y-82267142D01*
X150535714Y-82195714D01*
X150607143Y-82124285D01*
X150678571Y-81981428D01*
X150678571Y-81552856D01*
X150607143Y-81409999D01*
X150535714Y-81338571D01*
X148138571Y-79624286D02*
X147424286Y-79124286D01*
X148138571Y-78767143D02*
X146638571Y-78767143D01*
X146638571Y-79338571D01*
X146710000Y-79481429D01*
X146781429Y-79552857D01*
X146924286Y-79624286D01*
X147138571Y-79624286D01*
X147281429Y-79552857D01*
X147352857Y-79481429D01*
X147424286Y-79338571D01*
X147424286Y-78767143D01*
X146638571Y-80124286D02*
X148138571Y-81124286D01*
X146638571Y-81124286D02*
X148138571Y-80124286D01*
X144098571Y-78552857D02*
X144098571Y-79410000D01*
X145598571Y-78981429D02*
X144098571Y-78981429D01*
X144098571Y-79767143D02*
X145598571Y-80767143D01*
X144098571Y-80767143D02*
X145598571Y-79767143D01*
M02*
