G04 #@! TF.FileFunction,Copper,L2,Bot,Signal*
%FSLAX46Y46*%
G04 Gerber Fmt 4.6, Leading zero omitted, Abs format (unit mm)*
G04 Created by KiCad (PCBNEW 4.0.7) date 07/18/18 10:51:39*
%MOMM*%
%LPD*%
G01*
G04 APERTURE LIST*
%ADD10C,0.100000*%
%ADD11R,1.700000X1.700000*%
%ADD12O,1.700000X1.700000*%
%ADD13C,0.500000*%
%ADD14C,0.700000*%
%ADD15C,0.250000*%
%ADD16C,0.500000*%
%ADD17C,0.254000*%
G04 APERTURE END LIST*
D10*
D11*
X144920000Y-77140000D03*
D12*
X147460000Y-77140000D03*
X150000000Y-77140000D03*
X152540000Y-77140000D03*
X155080000Y-77140000D03*
D13*
X153506594Y-113306594D03*
X153200000Y-110800000D03*
X154000000Y-110800000D03*
X154000000Y-112000000D03*
X147500000Y-117300000D03*
X154800000Y-110800000D03*
X160300000Y-77000000D03*
X160300000Y-84800000D03*
X160300000Y-90300000D03*
X160400000Y-102000000D03*
X160200000Y-109800000D03*
X157100000Y-112600000D03*
X160300000Y-115500000D03*
X160300000Y-123200000D03*
X156400000Y-123200000D03*
X153400000Y-120600000D03*
X153400000Y-123200000D03*
X146500000Y-123200000D03*
X146500000Y-121100000D03*
X139800000Y-117100000D03*
X139400000Y-115200000D03*
X142500000Y-112500000D03*
X139400000Y-109400000D03*
X139500000Y-102500000D03*
X139500000Y-90300000D03*
X142500000Y-87400000D03*
X139500000Y-84600000D03*
X139500000Y-76600000D03*
X142800000Y-76600000D03*
X151300000Y-85700000D03*
X150500000Y-82200000D03*
X151200000Y-78500000D03*
X159300000Y-93900000D03*
X157700000Y-97700000D03*
X154000000Y-97700000D03*
X155800000Y-98700000D03*
X157600000Y-94500000D03*
X152900000Y-96300000D03*
X154500000Y-94300000D03*
X143300000Y-94100000D03*
X141300000Y-95000000D03*
X148500000Y-115700000D03*
X144500000Y-113300000D03*
X148550000Y-111600000D03*
X144050000Y-111600000D03*
D14*
X154600000Y-105100000D03*
X150000000Y-104300000D03*
X150000000Y-105900000D03*
X151600000Y-95800000D03*
X154600000Y-107500000D03*
X149500000Y-105100000D03*
X149500000Y-106700000D03*
X150500000Y-113800000D03*
D13*
X151100000Y-97600000D03*
X151600000Y-102800000D03*
X143500000Y-109700000D03*
X148600000Y-97600000D03*
X147800000Y-97900000D03*
X144800000Y-106500000D03*
X148200000Y-109200000D03*
X144800000Y-105300000D03*
X149600000Y-108100000D03*
X142300000Y-101100000D03*
X140700000Y-105700000D03*
D15*
X153200000Y-113000000D02*
X153506594Y-113306594D01*
X153200000Y-110800000D02*
X153200000Y-113000000D01*
X154000000Y-112000000D02*
X154000000Y-110800000D01*
X154800000Y-115155922D02*
X154800000Y-111153553D01*
X147500000Y-117300000D02*
X152655922Y-117300000D01*
X154800000Y-111153553D02*
X154800000Y-110800000D01*
X152655922Y-117300000D02*
X154800000Y-115155922D01*
X157800000Y-86000000D02*
X159000000Y-84800000D01*
X159000000Y-84800000D02*
X160300000Y-84800000D01*
X157800000Y-88300000D02*
X157800000Y-86000000D01*
X159550001Y-90050001D02*
X157800000Y-88300000D01*
X160300000Y-90300000D02*
X160050001Y-90050001D01*
X160050001Y-90050001D02*
X159550001Y-90050001D01*
X160200000Y-109800000D02*
X160200000Y-102200000D01*
X160200000Y-102200000D02*
X160400000Y-102000000D01*
X157100000Y-115500000D02*
X157100000Y-112600000D01*
X159946447Y-115500000D02*
X157100000Y-115500000D01*
X160300000Y-115500000D02*
X159946447Y-115500000D01*
X156400000Y-123200000D02*
X160300000Y-123200000D01*
X153400000Y-123200000D02*
X153400000Y-120600000D01*
X146500000Y-121100000D02*
X146500000Y-123200000D01*
X139400000Y-115200000D02*
X139400000Y-116700000D01*
X139400000Y-116700000D02*
X139800000Y-117100000D01*
X141800000Y-109400000D02*
X142500000Y-110100000D01*
X142500000Y-110100000D02*
X142500000Y-112500000D01*
X139400000Y-109400000D02*
X141800000Y-109400000D01*
X139500000Y-90300000D02*
X139500000Y-102500000D01*
X141000000Y-84600000D02*
X142500000Y-86100000D01*
X142500000Y-86100000D02*
X142500000Y-87400000D01*
X139500000Y-84600000D02*
X141000000Y-84600000D01*
X142800000Y-76600000D02*
X139500000Y-76600000D01*
X151200000Y-78500000D02*
X151200000Y-81500000D01*
X151200000Y-81500000D02*
X150500000Y-82200000D01*
X154500000Y-94300000D02*
X154500000Y-94700000D01*
X154500000Y-94700000D02*
X152900000Y-96300000D01*
D16*
X152400000Y-103200000D02*
X152400000Y-99900000D01*
X152400000Y-99900000D02*
X152400000Y-97800000D01*
X150000000Y-77140000D02*
X149150001Y-77989999D01*
X149150001Y-77989999D02*
X149150001Y-96650001D01*
X149150001Y-96650001D02*
X152400000Y-99900000D01*
X152400000Y-97800000D02*
X151600000Y-97000000D01*
X151600000Y-97000000D02*
X151600000Y-95800000D01*
X150500000Y-105100000D02*
X152400000Y-103200000D01*
X149500000Y-105100000D02*
X150500000Y-105100000D01*
X154600000Y-107500000D02*
X154105026Y-107500000D01*
X154105026Y-107500000D02*
X153905026Y-107700000D01*
X153905026Y-107700000D02*
X150500000Y-107700000D01*
X149150001Y-106350001D02*
X149500000Y-106700000D01*
X149150001Y-105449999D02*
X149150001Y-106350001D01*
X149500000Y-105100000D02*
X149150001Y-105449999D01*
X150500000Y-113800000D02*
X150500000Y-107700000D01*
X150500000Y-107700000D02*
X149500000Y-106700000D01*
D15*
X150850001Y-95449999D02*
X152540000Y-93760000D01*
X152540000Y-93760000D02*
X152540000Y-77140000D01*
X151100000Y-97600000D02*
X150850001Y-97350001D01*
X150850001Y-97350001D02*
X150850001Y-95449999D01*
X151246447Y-102800000D02*
X151600000Y-102800000D01*
X143500000Y-109700000D02*
X143500000Y-105600000D01*
X146300000Y-102800000D02*
X151246447Y-102800000D01*
X143500000Y-105600000D02*
X146300000Y-102800000D01*
X148309999Y-77989999D02*
X147460000Y-77140000D01*
X148350001Y-78030001D02*
X148309999Y-77989999D01*
X148350001Y-97350001D02*
X148350001Y-78030001D01*
X148600000Y-97600000D02*
X148350001Y-97350001D01*
X147800000Y-97900000D02*
X147800000Y-80020000D01*
X147800000Y-80020000D02*
X144920000Y-77140000D01*
X148200000Y-109200000D02*
X147500000Y-109200000D01*
X147500000Y-109200000D02*
X144800000Y-106500000D01*
X149600000Y-108100000D02*
X146800000Y-105300000D01*
X146800000Y-105300000D02*
X144800000Y-105300000D01*
X140700000Y-105700000D02*
X142300000Y-104100000D01*
X142300000Y-104100000D02*
X142300000Y-101100000D01*
D17*
G36*
X143681536Y-77990000D02*
X143708103Y-78131190D01*
X143791546Y-78260865D01*
X143918866Y-78347859D01*
X144070000Y-78378464D01*
X145442872Y-78378464D01*
X147294000Y-80229592D01*
X147294000Y-97513527D01*
X147265376Y-97542101D01*
X147169110Y-97773936D01*
X147168891Y-98024963D01*
X147264752Y-98256966D01*
X147442101Y-98434624D01*
X147673936Y-98530890D01*
X147924963Y-98531109D01*
X148156966Y-98435248D01*
X148334624Y-98257899D01*
X148364677Y-98185522D01*
X148473936Y-98230890D01*
X148724963Y-98231109D01*
X148956966Y-98135248D01*
X149134624Y-97957899D01*
X149230890Y-97726064D01*
X149230980Y-97623348D01*
X151769000Y-100161369D01*
X151769000Y-102186939D01*
X151726064Y-102169110D01*
X151475037Y-102168891D01*
X151243034Y-102264752D01*
X151213735Y-102294000D01*
X146300000Y-102294000D01*
X146106362Y-102332517D01*
X145942204Y-102442204D01*
X143142204Y-105242204D01*
X143032517Y-105406362D01*
X142994000Y-105600000D01*
X142994000Y-109313527D01*
X142965376Y-109342101D01*
X142869110Y-109573936D01*
X142868891Y-109824963D01*
X142964752Y-110056966D01*
X143142101Y-110234624D01*
X143373936Y-110330890D01*
X143624963Y-110331109D01*
X143856966Y-110235248D01*
X144034624Y-110057899D01*
X144130890Y-109826064D01*
X144131109Y-109575037D01*
X144035248Y-109343034D01*
X144006000Y-109313735D01*
X144006000Y-105809592D01*
X144233723Y-105581869D01*
X144264752Y-105656966D01*
X144442101Y-105834624D01*
X144599645Y-105900042D01*
X144443034Y-105964752D01*
X144265376Y-106142101D01*
X144169110Y-106373936D01*
X144168891Y-106624963D01*
X144264752Y-106856966D01*
X144442101Y-107034624D01*
X144673936Y-107130890D01*
X144715334Y-107130926D01*
X147142204Y-109557796D01*
X147306362Y-109667483D01*
X147500000Y-109706000D01*
X147813527Y-109706000D01*
X147842101Y-109734624D01*
X148073936Y-109830890D01*
X148324963Y-109831109D01*
X148556966Y-109735248D01*
X148734624Y-109557899D01*
X148830890Y-109326064D01*
X148831109Y-109075037D01*
X148735248Y-108843034D01*
X148557899Y-108665376D01*
X148326064Y-108569110D01*
X148075037Y-108568891D01*
X147843034Y-108664752D01*
X147813735Y-108694000D01*
X147709592Y-108694000D01*
X145431074Y-106415482D01*
X145431109Y-106375037D01*
X145335248Y-106143034D01*
X145157899Y-105965376D01*
X145000355Y-105899958D01*
X145156966Y-105835248D01*
X145186265Y-105806000D01*
X146590408Y-105806000D01*
X148968926Y-108184518D01*
X148968891Y-108224963D01*
X149064752Y-108456966D01*
X149242101Y-108634624D01*
X149473936Y-108730890D01*
X149724963Y-108731109D01*
X149869000Y-108671595D01*
X149869000Y-113413437D01*
X149769127Y-113653957D01*
X149768874Y-113944767D01*
X149879927Y-114213537D01*
X150085381Y-114419350D01*
X150353957Y-114530873D01*
X150644767Y-114531126D01*
X150913537Y-114420073D01*
X151119350Y-114214619D01*
X151230873Y-113946043D01*
X151231126Y-113655233D01*
X151131000Y-113412908D01*
X151131000Y-108331000D01*
X153905026Y-108331000D01*
X154146499Y-108282968D01*
X154312421Y-108172102D01*
X154453957Y-108230873D01*
X154744767Y-108231126D01*
X155013537Y-108120073D01*
X155219350Y-107914619D01*
X155330873Y-107646043D01*
X155331126Y-107355233D01*
X155220073Y-107086463D01*
X155014619Y-106880650D01*
X154746043Y-106769127D01*
X154455233Y-106768874D01*
X154212908Y-106869000D01*
X154105026Y-106869000D01*
X153863553Y-106917032D01*
X153658842Y-107053815D01*
X153643657Y-107069000D01*
X150761369Y-107069000D01*
X150219525Y-106527157D01*
X150120073Y-106286463D01*
X149914619Y-106080650D01*
X149781001Y-106025167D01*
X149781001Y-105774836D01*
X149887092Y-105731000D01*
X150500000Y-105731000D01*
X150741473Y-105682968D01*
X150946184Y-105546184D01*
X152846185Y-103646184D01*
X152982968Y-103441473D01*
X153031000Y-103200000D01*
X153031000Y-97800000D01*
X152982968Y-97558527D01*
X152846184Y-97353816D01*
X152231000Y-96738632D01*
X152231000Y-96186563D01*
X152330873Y-95946043D01*
X152331126Y-95655233D01*
X152220073Y-95386463D01*
X152014619Y-95180650D01*
X151887660Y-95127932D01*
X152897796Y-94117796D01*
X153007483Y-93953638D01*
X153046000Y-93760000D01*
X153046000Y-78278082D01*
X153410448Y-78034565D01*
X153677296Y-77635200D01*
X153685083Y-77596053D01*
X153884817Y-78021358D01*
X154313076Y-78411645D01*
X154723110Y-78581476D01*
X154953000Y-78460155D01*
X154953000Y-77267000D01*
X155207000Y-77267000D01*
X155207000Y-78460155D01*
X155436890Y-78581476D01*
X155846924Y-78411645D01*
X156275183Y-78021358D01*
X156521486Y-77496892D01*
X156400819Y-77267000D01*
X155207000Y-77267000D01*
X154953000Y-77267000D01*
X154933000Y-77267000D01*
X154933000Y-77013000D01*
X154953000Y-77013000D01*
X154953000Y-76993000D01*
X155207000Y-76993000D01*
X155207000Y-77013000D01*
X156400819Y-77013000D01*
X156521486Y-76783108D01*
X156295075Y-76301000D01*
X160999000Y-76301000D01*
X160999000Y-85469000D01*
X160000000Y-85469000D01*
X159958365Y-85477282D01*
X159915916Y-85477282D01*
X159303628Y-85599074D01*
X159148256Y-85663430D01*
X158629179Y-86010265D01*
X158510265Y-86129179D01*
X158163429Y-86648257D01*
X158099074Y-86803624D01*
X158099074Y-86803627D01*
X157977283Y-87415911D01*
X157977281Y-87415916D01*
X157977282Y-87500000D01*
X157977281Y-87584084D01*
X157977283Y-87584089D01*
X158099074Y-88196373D01*
X158099074Y-88196376D01*
X158163429Y-88351743D01*
X158510265Y-88870821D01*
X158629179Y-88989735D01*
X159148256Y-89336570D01*
X159303624Y-89400926D01*
X159303628Y-89400926D01*
X159915916Y-89522718D01*
X159958365Y-89522718D01*
X160000000Y-89531000D01*
X160999000Y-89531000D01*
X160999000Y-110469000D01*
X160000000Y-110469000D01*
X159958365Y-110477282D01*
X159915916Y-110477282D01*
X159303628Y-110599074D01*
X159148256Y-110663430D01*
X158629179Y-111010265D01*
X158510265Y-111129179D01*
X158163429Y-111648257D01*
X158099074Y-111803624D01*
X158099074Y-111803627D01*
X157977283Y-112415911D01*
X157977281Y-112415916D01*
X157977282Y-112500000D01*
X157977281Y-112584084D01*
X157977283Y-112584089D01*
X158099074Y-113196373D01*
X158099074Y-113196376D01*
X158163429Y-113351743D01*
X158510265Y-113870821D01*
X158629179Y-113989735D01*
X159148256Y-114336570D01*
X159303624Y-114400926D01*
X159303628Y-114400926D01*
X159915916Y-114522718D01*
X159958365Y-114522718D01*
X160000000Y-114531000D01*
X160999000Y-114531000D01*
X160999000Y-123699000D01*
X139001000Y-123699000D01*
X139001000Y-117424963D01*
X146868891Y-117424963D01*
X146964752Y-117656966D01*
X147142101Y-117834624D01*
X147373936Y-117930890D01*
X147624963Y-117931109D01*
X147856966Y-117835248D01*
X147886265Y-117806000D01*
X152655922Y-117806000D01*
X152849560Y-117767483D01*
X153013718Y-117657796D01*
X155157796Y-115513718D01*
X155267483Y-115349560D01*
X155306000Y-115155922D01*
X155306000Y-111186473D01*
X155334624Y-111157899D01*
X155430890Y-110926064D01*
X155431109Y-110675037D01*
X155335248Y-110443034D01*
X155157899Y-110265376D01*
X154926064Y-110169110D01*
X154675037Y-110168891D01*
X154443034Y-110264752D01*
X154400080Y-110307631D01*
X154357899Y-110265376D01*
X154126064Y-110169110D01*
X153875037Y-110168891D01*
X153643034Y-110264752D01*
X153600080Y-110307631D01*
X153557899Y-110265376D01*
X153326064Y-110169110D01*
X153075037Y-110168891D01*
X152843034Y-110264752D01*
X152665376Y-110442101D01*
X152569110Y-110673936D01*
X152568891Y-110924963D01*
X152664752Y-111156966D01*
X152694000Y-111186265D01*
X152694000Y-113000000D01*
X152732517Y-113193638D01*
X152842204Y-113357796D01*
X152875520Y-113391112D01*
X152875485Y-113431557D01*
X152971346Y-113663560D01*
X153148695Y-113841218D01*
X153380530Y-113937484D01*
X153631557Y-113937703D01*
X153863560Y-113841842D01*
X154041218Y-113664493D01*
X154137484Y-113432658D01*
X154137703Y-113181631D01*
X154041842Y-112949628D01*
X153864493Y-112771970D01*
X153706000Y-112706158D01*
X153706000Y-112561157D01*
X153873936Y-112630890D01*
X154124963Y-112631109D01*
X154294000Y-112561265D01*
X154294000Y-114946330D01*
X152446330Y-116794000D01*
X147886473Y-116794000D01*
X147857899Y-116765376D01*
X147626064Y-116669110D01*
X147375037Y-116668891D01*
X147143034Y-116764752D01*
X146965376Y-116942101D01*
X146869110Y-117173936D01*
X146868891Y-117424963D01*
X139001000Y-117424963D01*
X139001000Y-114531000D01*
X140000000Y-114531000D01*
X140041635Y-114522718D01*
X140084084Y-114522718D01*
X140696373Y-114400926D01*
X140696376Y-114400926D01*
X140851743Y-114336571D01*
X140851744Y-114336571D01*
X140851746Y-114336569D01*
X141370821Y-113989735D01*
X141489735Y-113870821D01*
X141836570Y-113351744D01*
X141900926Y-113196376D01*
X141900926Y-113196372D01*
X142022717Y-112584091D01*
X142022719Y-112584085D01*
X142022718Y-112500000D01*
X142022719Y-112415915D01*
X142022717Y-112415909D01*
X141900926Y-111803628D01*
X141900926Y-111803624D01*
X141836570Y-111648256D01*
X141489735Y-111129179D01*
X141370821Y-111010265D01*
X140851746Y-110663431D01*
X140851745Y-110663430D01*
X140844790Y-110660549D01*
X140696376Y-110599074D01*
X140696373Y-110599074D01*
X140084084Y-110477282D01*
X140041635Y-110477282D01*
X140000000Y-110469000D01*
X139001000Y-110469000D01*
X139001000Y-105824963D01*
X140068891Y-105824963D01*
X140164752Y-106056966D01*
X140342101Y-106234624D01*
X140573936Y-106330890D01*
X140824963Y-106331109D01*
X141056966Y-106235248D01*
X141234624Y-106057899D01*
X141330890Y-105826064D01*
X141330926Y-105784666D01*
X142657796Y-104457796D01*
X142767483Y-104293638D01*
X142806000Y-104100000D01*
X142806000Y-101486473D01*
X142834624Y-101457899D01*
X142930890Y-101226064D01*
X142931109Y-100975037D01*
X142835248Y-100743034D01*
X142657899Y-100565376D01*
X142426064Y-100469110D01*
X142175037Y-100468891D01*
X141943034Y-100564752D01*
X141765376Y-100742101D01*
X141669110Y-100973936D01*
X141668891Y-101224963D01*
X141764752Y-101456966D01*
X141794000Y-101486265D01*
X141794000Y-103890408D01*
X140615482Y-105068926D01*
X140575037Y-105068891D01*
X140343034Y-105164752D01*
X140165376Y-105342101D01*
X140069110Y-105573936D01*
X140068891Y-105824963D01*
X139001000Y-105824963D01*
X139001000Y-89531000D01*
X140000000Y-89531000D01*
X140041635Y-89522718D01*
X140084084Y-89522718D01*
X140696373Y-89400926D01*
X140696376Y-89400926D01*
X140851743Y-89336571D01*
X140851744Y-89336571D01*
X140851746Y-89336569D01*
X141370821Y-88989735D01*
X141489735Y-88870821D01*
X141836570Y-88351744D01*
X141900926Y-88196376D01*
X141900926Y-88196372D01*
X142022717Y-87584091D01*
X142022719Y-87584085D01*
X142022718Y-87500000D01*
X142022719Y-87415915D01*
X142022717Y-87415909D01*
X141900926Y-86803628D01*
X141900926Y-86803624D01*
X141836570Y-86648256D01*
X141489735Y-86129179D01*
X141370821Y-86010265D01*
X140851746Y-85663431D01*
X140851745Y-85663430D01*
X140696378Y-85599075D01*
X140696379Y-85599075D01*
X140696376Y-85599074D01*
X140696373Y-85599074D01*
X140084084Y-85477282D01*
X140041635Y-85477282D01*
X140000000Y-85469000D01*
X139001000Y-85469000D01*
X139001000Y-76301000D01*
X143681536Y-76301000D01*
X143681536Y-77990000D01*
X143681536Y-77990000D01*
G37*
X143681536Y-77990000D02*
X143708103Y-78131190D01*
X143791546Y-78260865D01*
X143918866Y-78347859D01*
X144070000Y-78378464D01*
X145442872Y-78378464D01*
X147294000Y-80229592D01*
X147294000Y-97513527D01*
X147265376Y-97542101D01*
X147169110Y-97773936D01*
X147168891Y-98024963D01*
X147264752Y-98256966D01*
X147442101Y-98434624D01*
X147673936Y-98530890D01*
X147924963Y-98531109D01*
X148156966Y-98435248D01*
X148334624Y-98257899D01*
X148364677Y-98185522D01*
X148473936Y-98230890D01*
X148724963Y-98231109D01*
X148956966Y-98135248D01*
X149134624Y-97957899D01*
X149230890Y-97726064D01*
X149230980Y-97623348D01*
X151769000Y-100161369D01*
X151769000Y-102186939D01*
X151726064Y-102169110D01*
X151475037Y-102168891D01*
X151243034Y-102264752D01*
X151213735Y-102294000D01*
X146300000Y-102294000D01*
X146106362Y-102332517D01*
X145942204Y-102442204D01*
X143142204Y-105242204D01*
X143032517Y-105406362D01*
X142994000Y-105600000D01*
X142994000Y-109313527D01*
X142965376Y-109342101D01*
X142869110Y-109573936D01*
X142868891Y-109824963D01*
X142964752Y-110056966D01*
X143142101Y-110234624D01*
X143373936Y-110330890D01*
X143624963Y-110331109D01*
X143856966Y-110235248D01*
X144034624Y-110057899D01*
X144130890Y-109826064D01*
X144131109Y-109575037D01*
X144035248Y-109343034D01*
X144006000Y-109313735D01*
X144006000Y-105809592D01*
X144233723Y-105581869D01*
X144264752Y-105656966D01*
X144442101Y-105834624D01*
X144599645Y-105900042D01*
X144443034Y-105964752D01*
X144265376Y-106142101D01*
X144169110Y-106373936D01*
X144168891Y-106624963D01*
X144264752Y-106856966D01*
X144442101Y-107034624D01*
X144673936Y-107130890D01*
X144715334Y-107130926D01*
X147142204Y-109557796D01*
X147306362Y-109667483D01*
X147500000Y-109706000D01*
X147813527Y-109706000D01*
X147842101Y-109734624D01*
X148073936Y-109830890D01*
X148324963Y-109831109D01*
X148556966Y-109735248D01*
X148734624Y-109557899D01*
X148830890Y-109326064D01*
X148831109Y-109075037D01*
X148735248Y-108843034D01*
X148557899Y-108665376D01*
X148326064Y-108569110D01*
X148075037Y-108568891D01*
X147843034Y-108664752D01*
X147813735Y-108694000D01*
X147709592Y-108694000D01*
X145431074Y-106415482D01*
X145431109Y-106375037D01*
X145335248Y-106143034D01*
X145157899Y-105965376D01*
X145000355Y-105899958D01*
X145156966Y-105835248D01*
X145186265Y-105806000D01*
X146590408Y-105806000D01*
X148968926Y-108184518D01*
X148968891Y-108224963D01*
X149064752Y-108456966D01*
X149242101Y-108634624D01*
X149473936Y-108730890D01*
X149724963Y-108731109D01*
X149869000Y-108671595D01*
X149869000Y-113413437D01*
X149769127Y-113653957D01*
X149768874Y-113944767D01*
X149879927Y-114213537D01*
X150085381Y-114419350D01*
X150353957Y-114530873D01*
X150644767Y-114531126D01*
X150913537Y-114420073D01*
X151119350Y-114214619D01*
X151230873Y-113946043D01*
X151231126Y-113655233D01*
X151131000Y-113412908D01*
X151131000Y-108331000D01*
X153905026Y-108331000D01*
X154146499Y-108282968D01*
X154312421Y-108172102D01*
X154453957Y-108230873D01*
X154744767Y-108231126D01*
X155013537Y-108120073D01*
X155219350Y-107914619D01*
X155330873Y-107646043D01*
X155331126Y-107355233D01*
X155220073Y-107086463D01*
X155014619Y-106880650D01*
X154746043Y-106769127D01*
X154455233Y-106768874D01*
X154212908Y-106869000D01*
X154105026Y-106869000D01*
X153863553Y-106917032D01*
X153658842Y-107053815D01*
X153643657Y-107069000D01*
X150761369Y-107069000D01*
X150219525Y-106527157D01*
X150120073Y-106286463D01*
X149914619Y-106080650D01*
X149781001Y-106025167D01*
X149781001Y-105774836D01*
X149887092Y-105731000D01*
X150500000Y-105731000D01*
X150741473Y-105682968D01*
X150946184Y-105546184D01*
X152846185Y-103646184D01*
X152982968Y-103441473D01*
X153031000Y-103200000D01*
X153031000Y-97800000D01*
X152982968Y-97558527D01*
X152846184Y-97353816D01*
X152231000Y-96738632D01*
X152231000Y-96186563D01*
X152330873Y-95946043D01*
X152331126Y-95655233D01*
X152220073Y-95386463D01*
X152014619Y-95180650D01*
X151887660Y-95127932D01*
X152897796Y-94117796D01*
X153007483Y-93953638D01*
X153046000Y-93760000D01*
X153046000Y-78278082D01*
X153410448Y-78034565D01*
X153677296Y-77635200D01*
X153685083Y-77596053D01*
X153884817Y-78021358D01*
X154313076Y-78411645D01*
X154723110Y-78581476D01*
X154953000Y-78460155D01*
X154953000Y-77267000D01*
X155207000Y-77267000D01*
X155207000Y-78460155D01*
X155436890Y-78581476D01*
X155846924Y-78411645D01*
X156275183Y-78021358D01*
X156521486Y-77496892D01*
X156400819Y-77267000D01*
X155207000Y-77267000D01*
X154953000Y-77267000D01*
X154933000Y-77267000D01*
X154933000Y-77013000D01*
X154953000Y-77013000D01*
X154953000Y-76993000D01*
X155207000Y-76993000D01*
X155207000Y-77013000D01*
X156400819Y-77013000D01*
X156521486Y-76783108D01*
X156295075Y-76301000D01*
X160999000Y-76301000D01*
X160999000Y-85469000D01*
X160000000Y-85469000D01*
X159958365Y-85477282D01*
X159915916Y-85477282D01*
X159303628Y-85599074D01*
X159148256Y-85663430D01*
X158629179Y-86010265D01*
X158510265Y-86129179D01*
X158163429Y-86648257D01*
X158099074Y-86803624D01*
X158099074Y-86803627D01*
X157977283Y-87415911D01*
X157977281Y-87415916D01*
X157977282Y-87500000D01*
X157977281Y-87584084D01*
X157977283Y-87584089D01*
X158099074Y-88196373D01*
X158099074Y-88196376D01*
X158163429Y-88351743D01*
X158510265Y-88870821D01*
X158629179Y-88989735D01*
X159148256Y-89336570D01*
X159303624Y-89400926D01*
X159303628Y-89400926D01*
X159915916Y-89522718D01*
X159958365Y-89522718D01*
X160000000Y-89531000D01*
X160999000Y-89531000D01*
X160999000Y-110469000D01*
X160000000Y-110469000D01*
X159958365Y-110477282D01*
X159915916Y-110477282D01*
X159303628Y-110599074D01*
X159148256Y-110663430D01*
X158629179Y-111010265D01*
X158510265Y-111129179D01*
X158163429Y-111648257D01*
X158099074Y-111803624D01*
X158099074Y-111803627D01*
X157977283Y-112415911D01*
X157977281Y-112415916D01*
X157977282Y-112500000D01*
X157977281Y-112584084D01*
X157977283Y-112584089D01*
X158099074Y-113196373D01*
X158099074Y-113196376D01*
X158163429Y-113351743D01*
X158510265Y-113870821D01*
X158629179Y-113989735D01*
X159148256Y-114336570D01*
X159303624Y-114400926D01*
X159303628Y-114400926D01*
X159915916Y-114522718D01*
X159958365Y-114522718D01*
X160000000Y-114531000D01*
X160999000Y-114531000D01*
X160999000Y-123699000D01*
X139001000Y-123699000D01*
X139001000Y-117424963D01*
X146868891Y-117424963D01*
X146964752Y-117656966D01*
X147142101Y-117834624D01*
X147373936Y-117930890D01*
X147624963Y-117931109D01*
X147856966Y-117835248D01*
X147886265Y-117806000D01*
X152655922Y-117806000D01*
X152849560Y-117767483D01*
X153013718Y-117657796D01*
X155157796Y-115513718D01*
X155267483Y-115349560D01*
X155306000Y-115155922D01*
X155306000Y-111186473D01*
X155334624Y-111157899D01*
X155430890Y-110926064D01*
X155431109Y-110675037D01*
X155335248Y-110443034D01*
X155157899Y-110265376D01*
X154926064Y-110169110D01*
X154675037Y-110168891D01*
X154443034Y-110264752D01*
X154400080Y-110307631D01*
X154357899Y-110265376D01*
X154126064Y-110169110D01*
X153875037Y-110168891D01*
X153643034Y-110264752D01*
X153600080Y-110307631D01*
X153557899Y-110265376D01*
X153326064Y-110169110D01*
X153075037Y-110168891D01*
X152843034Y-110264752D01*
X152665376Y-110442101D01*
X152569110Y-110673936D01*
X152568891Y-110924963D01*
X152664752Y-111156966D01*
X152694000Y-111186265D01*
X152694000Y-113000000D01*
X152732517Y-113193638D01*
X152842204Y-113357796D01*
X152875520Y-113391112D01*
X152875485Y-113431557D01*
X152971346Y-113663560D01*
X153148695Y-113841218D01*
X153380530Y-113937484D01*
X153631557Y-113937703D01*
X153863560Y-113841842D01*
X154041218Y-113664493D01*
X154137484Y-113432658D01*
X154137703Y-113181631D01*
X154041842Y-112949628D01*
X153864493Y-112771970D01*
X153706000Y-112706158D01*
X153706000Y-112561157D01*
X153873936Y-112630890D01*
X154124963Y-112631109D01*
X154294000Y-112561265D01*
X154294000Y-114946330D01*
X152446330Y-116794000D01*
X147886473Y-116794000D01*
X147857899Y-116765376D01*
X147626064Y-116669110D01*
X147375037Y-116668891D01*
X147143034Y-116764752D01*
X146965376Y-116942101D01*
X146869110Y-117173936D01*
X146868891Y-117424963D01*
X139001000Y-117424963D01*
X139001000Y-114531000D01*
X140000000Y-114531000D01*
X140041635Y-114522718D01*
X140084084Y-114522718D01*
X140696373Y-114400926D01*
X140696376Y-114400926D01*
X140851743Y-114336571D01*
X140851744Y-114336571D01*
X140851746Y-114336569D01*
X141370821Y-113989735D01*
X141489735Y-113870821D01*
X141836570Y-113351744D01*
X141900926Y-113196376D01*
X141900926Y-113196372D01*
X142022717Y-112584091D01*
X142022719Y-112584085D01*
X142022718Y-112500000D01*
X142022719Y-112415915D01*
X142022717Y-112415909D01*
X141900926Y-111803628D01*
X141900926Y-111803624D01*
X141836570Y-111648256D01*
X141489735Y-111129179D01*
X141370821Y-111010265D01*
X140851746Y-110663431D01*
X140851745Y-110663430D01*
X140844790Y-110660549D01*
X140696376Y-110599074D01*
X140696373Y-110599074D01*
X140084084Y-110477282D01*
X140041635Y-110477282D01*
X140000000Y-110469000D01*
X139001000Y-110469000D01*
X139001000Y-105824963D01*
X140068891Y-105824963D01*
X140164752Y-106056966D01*
X140342101Y-106234624D01*
X140573936Y-106330890D01*
X140824963Y-106331109D01*
X141056966Y-106235248D01*
X141234624Y-106057899D01*
X141330890Y-105826064D01*
X141330926Y-105784666D01*
X142657796Y-104457796D01*
X142767483Y-104293638D01*
X142806000Y-104100000D01*
X142806000Y-101486473D01*
X142834624Y-101457899D01*
X142930890Y-101226064D01*
X142931109Y-100975037D01*
X142835248Y-100743034D01*
X142657899Y-100565376D01*
X142426064Y-100469110D01*
X142175037Y-100468891D01*
X141943034Y-100564752D01*
X141765376Y-100742101D01*
X141669110Y-100973936D01*
X141668891Y-101224963D01*
X141764752Y-101456966D01*
X141794000Y-101486265D01*
X141794000Y-103890408D01*
X140615482Y-105068926D01*
X140575037Y-105068891D01*
X140343034Y-105164752D01*
X140165376Y-105342101D01*
X140069110Y-105573936D01*
X140068891Y-105824963D01*
X139001000Y-105824963D01*
X139001000Y-89531000D01*
X140000000Y-89531000D01*
X140041635Y-89522718D01*
X140084084Y-89522718D01*
X140696373Y-89400926D01*
X140696376Y-89400926D01*
X140851743Y-89336571D01*
X140851744Y-89336571D01*
X140851746Y-89336569D01*
X141370821Y-88989735D01*
X141489735Y-88870821D01*
X141836570Y-88351744D01*
X141900926Y-88196376D01*
X141900926Y-88196372D01*
X142022717Y-87584091D01*
X142022719Y-87584085D01*
X142022718Y-87500000D01*
X142022719Y-87415915D01*
X142022717Y-87415909D01*
X141900926Y-86803628D01*
X141900926Y-86803624D01*
X141836570Y-86648256D01*
X141489735Y-86129179D01*
X141370821Y-86010265D01*
X140851746Y-85663431D01*
X140851745Y-85663430D01*
X140696378Y-85599075D01*
X140696379Y-85599075D01*
X140696376Y-85599074D01*
X140696373Y-85599074D01*
X140084084Y-85477282D01*
X140041635Y-85477282D01*
X140000000Y-85469000D01*
X139001000Y-85469000D01*
X139001000Y-76301000D01*
X143681536Y-76301000D01*
X143681536Y-77990000D01*
G36*
X151242101Y-103334624D02*
X151334599Y-103373032D01*
X150238632Y-104469000D01*
X149886563Y-104469000D01*
X149646043Y-104369127D01*
X149355233Y-104368874D01*
X149086463Y-104479927D01*
X148880650Y-104685381D01*
X148780100Y-104927532D01*
X148703817Y-105003815D01*
X148567033Y-105208526D01*
X148519001Y-105449999D01*
X148519001Y-106303409D01*
X147157796Y-104942204D01*
X146993638Y-104832517D01*
X146800000Y-104794000D01*
X145186473Y-104794000D01*
X145157899Y-104765376D01*
X145081811Y-104733781D01*
X146509592Y-103306000D01*
X151213527Y-103306000D01*
X151242101Y-103334624D01*
X151242101Y-103334624D01*
G37*
X151242101Y-103334624D02*
X151334599Y-103373032D01*
X150238632Y-104469000D01*
X149886563Y-104469000D01*
X149646043Y-104369127D01*
X149355233Y-104368874D01*
X149086463Y-104479927D01*
X148880650Y-104685381D01*
X148780100Y-104927532D01*
X148703817Y-105003815D01*
X148567033Y-105208526D01*
X148519001Y-105449999D01*
X148519001Y-106303409D01*
X147157796Y-104942204D01*
X146993638Y-104832517D01*
X146800000Y-104794000D01*
X145186473Y-104794000D01*
X145157899Y-104765376D01*
X145081811Y-104733781D01*
X146509592Y-103306000D01*
X151213527Y-103306000D01*
X151242101Y-103334624D01*
G36*
X151402704Y-76644800D02*
X151309000Y-77115883D01*
X151309000Y-77164117D01*
X151402704Y-77635200D01*
X151669552Y-78034565D01*
X152034000Y-78278082D01*
X152034000Y-93550408D01*
X150492205Y-95092203D01*
X150382518Y-95256361D01*
X150344001Y-95449999D01*
X150344001Y-96951633D01*
X149781001Y-96388633D01*
X149781001Y-78351555D01*
X150000000Y-78395117D01*
X150471083Y-78301413D01*
X150870448Y-78034565D01*
X151137296Y-77635200D01*
X151231000Y-77164117D01*
X151231000Y-77115883D01*
X151137296Y-76644800D01*
X150907575Y-76301000D01*
X151632425Y-76301000D01*
X151402704Y-76644800D01*
X151402704Y-76644800D01*
G37*
X151402704Y-76644800D02*
X151309000Y-77115883D01*
X151309000Y-77164117D01*
X151402704Y-77635200D01*
X151669552Y-78034565D01*
X152034000Y-78278082D01*
X152034000Y-93550408D01*
X150492205Y-95092203D01*
X150382518Y-95256361D01*
X150344001Y-95449999D01*
X150344001Y-96951633D01*
X149781001Y-96388633D01*
X149781001Y-78351555D01*
X150000000Y-78395117D01*
X150471083Y-78301413D01*
X150870448Y-78034565D01*
X151137296Y-77635200D01*
X151231000Y-77164117D01*
X151231000Y-77115883D01*
X151137296Y-76644800D01*
X150907575Y-76301000D01*
X151632425Y-76301000D01*
X151402704Y-76644800D01*
M02*
