G04 #@! TF.FileFunction,Drawing*
%FSLAX46Y46*%
G04 Gerber Fmt 4.6, Leading zero omitted, Abs format (unit mm)*
G04 Created by KiCad (PCBNEW 4.0.7) date 07/18/18 10:51:39*
%MOMM*%
%LPD*%
G01*
G04 APERTURE LIST*
%ADD10C,0.100000*%
%ADD11C,0.300000*%
G04 APERTURE END LIST*
D10*
D11*
X143785715Y-126801429D02*
X143857144Y-126730000D01*
X144000001Y-126658571D01*
X144357144Y-126658571D01*
X144500001Y-126730000D01*
X144571430Y-126801429D01*
X144642858Y-126944286D01*
X144642858Y-127087143D01*
X144571430Y-127301429D01*
X143714287Y-128158571D01*
X144642858Y-128158571D01*
X145214286Y-126801429D02*
X145285715Y-126730000D01*
X145428572Y-126658571D01*
X145785715Y-126658571D01*
X145928572Y-126730000D01*
X146000001Y-126801429D01*
X146071429Y-126944286D01*
X146071429Y-127087143D01*
X146000001Y-127301429D01*
X145142858Y-128158571D01*
X146071429Y-128158571D01*
X146714286Y-128015714D02*
X146785714Y-128087143D01*
X146714286Y-128158571D01*
X146642857Y-128087143D01*
X146714286Y-128015714D01*
X146714286Y-128158571D01*
X147642858Y-127301429D02*
X147500000Y-127230000D01*
X147428572Y-127158571D01*
X147357143Y-127015714D01*
X147357143Y-126944286D01*
X147428572Y-126801429D01*
X147500000Y-126730000D01*
X147642858Y-126658571D01*
X147928572Y-126658571D01*
X148071429Y-126730000D01*
X148142858Y-126801429D01*
X148214286Y-126944286D01*
X148214286Y-127015714D01*
X148142858Y-127158571D01*
X148071429Y-127230000D01*
X147928572Y-127301429D01*
X147642858Y-127301429D01*
X147500000Y-127372857D01*
X147428572Y-127444286D01*
X147357143Y-127587143D01*
X147357143Y-127872857D01*
X147428572Y-128015714D01*
X147500000Y-128087143D01*
X147642858Y-128158571D01*
X147928572Y-128158571D01*
X148071429Y-128087143D01*
X148142858Y-128015714D01*
X148214286Y-127872857D01*
X148214286Y-127587143D01*
X148142858Y-127444286D01*
X148071429Y-127372857D01*
X147928572Y-127301429D01*
X149500000Y-126658571D02*
X149214286Y-126658571D01*
X149071429Y-126730000D01*
X149000000Y-126801429D01*
X148857143Y-127015714D01*
X148785714Y-127301429D01*
X148785714Y-127872857D01*
X148857143Y-128015714D01*
X148928571Y-128087143D01*
X149071429Y-128158571D01*
X149357143Y-128158571D01*
X149500000Y-128087143D01*
X149571429Y-128015714D01*
X149642857Y-127872857D01*
X149642857Y-127515714D01*
X149571429Y-127372857D01*
X149500000Y-127301429D01*
X149357143Y-127230000D01*
X149071429Y-127230000D01*
X148928571Y-127301429D01*
X148857143Y-127372857D01*
X148785714Y-127515714D01*
X150571428Y-126658571D02*
X150714285Y-126658571D01*
X150857142Y-126730000D01*
X150928571Y-126801429D01*
X151000000Y-126944286D01*
X151071428Y-127230000D01*
X151071428Y-127587143D01*
X151000000Y-127872857D01*
X150928571Y-128015714D01*
X150857142Y-128087143D01*
X150714285Y-128158571D01*
X150571428Y-128158571D01*
X150428571Y-128087143D01*
X150357142Y-128015714D01*
X150285714Y-127872857D01*
X150214285Y-127587143D01*
X150214285Y-127230000D01*
X150285714Y-126944286D01*
X150357142Y-126801429D01*
X150428571Y-126730000D01*
X150571428Y-126658571D01*
X152857142Y-128158571D02*
X152857142Y-127158571D01*
X152857142Y-127301429D02*
X152928570Y-127230000D01*
X153071428Y-127158571D01*
X153285713Y-127158571D01*
X153428570Y-127230000D01*
X153499999Y-127372857D01*
X153499999Y-128158571D01*
X153499999Y-127372857D02*
X153571428Y-127230000D01*
X153714285Y-127158571D01*
X153928570Y-127158571D01*
X154071428Y-127230000D01*
X154142856Y-127372857D01*
X154142856Y-128158571D01*
X154857142Y-128158571D02*
X154857142Y-127158571D01*
X154857142Y-127301429D02*
X154928570Y-127230000D01*
X155071428Y-127158571D01*
X155285713Y-127158571D01*
X155428570Y-127230000D01*
X155499999Y-127372857D01*
X155499999Y-128158571D01*
X155499999Y-127372857D02*
X155571428Y-127230000D01*
X155714285Y-127158571D01*
X155928570Y-127158571D01*
X156071428Y-127230000D01*
X156142856Y-127372857D01*
X156142856Y-128158571D01*
X138570000Y-126130000D02*
X161430000Y-126130000D01*
X138570000Y-124130000D02*
X138570000Y-128830000D01*
X161430000Y-124130000D02*
X161430000Y-128830000D01*
X161430000Y-126130000D02*
X160303496Y-126716421D01*
X161430000Y-126130000D02*
X160303496Y-125543579D01*
X138570000Y-126130000D02*
X139696504Y-126716421D01*
X138570000Y-126130000D02*
X139696504Y-125543579D01*
X135328572Y-93785715D02*
X135400001Y-93857144D01*
X135471430Y-94000001D01*
X135471430Y-94357144D01*
X135400001Y-94500001D01*
X135328572Y-94571430D01*
X135185715Y-94642858D01*
X135042858Y-94642858D01*
X134828572Y-94571430D01*
X133971430Y-93714287D01*
X133971430Y-94642858D01*
X135471430Y-96000001D02*
X135471430Y-95285715D01*
X134757144Y-95214286D01*
X134828572Y-95285715D01*
X134900001Y-95428572D01*
X134900001Y-95785715D01*
X134828572Y-95928572D01*
X134757144Y-96000001D01*
X134614287Y-96071429D01*
X134257144Y-96071429D01*
X134114287Y-96000001D01*
X134042858Y-95928572D01*
X133971430Y-95785715D01*
X133971430Y-95428572D01*
X134042858Y-95285715D01*
X134114287Y-95214286D01*
X134114287Y-96714286D02*
X134042858Y-96785714D01*
X133971430Y-96714286D01*
X134042858Y-96642857D01*
X134114287Y-96714286D01*
X133971430Y-96714286D01*
X135471430Y-97714286D02*
X135471430Y-97857143D01*
X135400001Y-98000000D01*
X135328572Y-98071429D01*
X135185715Y-98142858D01*
X134900001Y-98214286D01*
X134542858Y-98214286D01*
X134257144Y-98142858D01*
X134114287Y-98071429D01*
X134042858Y-98000000D01*
X133971430Y-97857143D01*
X133971430Y-97714286D01*
X134042858Y-97571429D01*
X134114287Y-97500000D01*
X134257144Y-97428572D01*
X134542858Y-97357143D01*
X134900001Y-97357143D01*
X135185715Y-97428572D01*
X135328572Y-97500000D01*
X135400001Y-97571429D01*
X135471430Y-97714286D01*
X135471430Y-99142857D02*
X135471430Y-99285714D01*
X135400001Y-99428571D01*
X135328572Y-99500000D01*
X135185715Y-99571429D01*
X134900001Y-99642857D01*
X134542858Y-99642857D01*
X134257144Y-99571429D01*
X134114287Y-99500000D01*
X134042858Y-99428571D01*
X133971430Y-99285714D01*
X133971430Y-99142857D01*
X134042858Y-99000000D01*
X134114287Y-98928571D01*
X134257144Y-98857143D01*
X134542858Y-98785714D01*
X134900001Y-98785714D01*
X135185715Y-98857143D01*
X135328572Y-98928571D01*
X135400001Y-99000000D01*
X135471430Y-99142857D01*
X135471430Y-100571428D02*
X135471430Y-100714285D01*
X135400001Y-100857142D01*
X135328572Y-100928571D01*
X135185715Y-101000000D01*
X134900001Y-101071428D01*
X134542858Y-101071428D01*
X134257144Y-101000000D01*
X134114287Y-100928571D01*
X134042858Y-100857142D01*
X133971430Y-100714285D01*
X133971430Y-100571428D01*
X134042858Y-100428571D01*
X134114287Y-100357142D01*
X134257144Y-100285714D01*
X134542858Y-100214285D01*
X134900001Y-100214285D01*
X135185715Y-100285714D01*
X135328572Y-100357142D01*
X135400001Y-100428571D01*
X135471430Y-100571428D01*
X133971430Y-102857142D02*
X134971430Y-102857142D01*
X134828572Y-102857142D02*
X134900001Y-102928570D01*
X134971430Y-103071428D01*
X134971430Y-103285713D01*
X134900001Y-103428570D01*
X134757144Y-103499999D01*
X133971430Y-103499999D01*
X134757144Y-103499999D02*
X134900001Y-103571428D01*
X134971430Y-103714285D01*
X134971430Y-103928570D01*
X134900001Y-104071428D01*
X134757144Y-104142856D01*
X133971430Y-104142856D01*
X133971430Y-104857142D02*
X134971430Y-104857142D01*
X134828572Y-104857142D02*
X134900001Y-104928570D01*
X134971430Y-105071428D01*
X134971430Y-105285713D01*
X134900001Y-105428570D01*
X134757144Y-105499999D01*
X133971430Y-105499999D01*
X134757144Y-105499999D02*
X134900001Y-105571428D01*
X134971430Y-105714285D01*
X134971430Y-105928570D01*
X134900001Y-106071428D01*
X134757144Y-106142856D01*
X133971430Y-106142856D01*
X136000001Y-87500000D02*
X136000001Y-112500000D01*
X140000000Y-87500000D02*
X133300001Y-87500000D01*
X140000000Y-112500000D02*
X133300001Y-112500000D01*
X136000001Y-112500000D02*
X135413580Y-111373496D01*
X136000001Y-112500000D02*
X136586422Y-111373496D01*
X136000001Y-87500000D02*
X135413580Y-88626504D01*
X136000001Y-87500000D02*
X136586422Y-88626504D01*
X130541430Y-94500001D02*
X129541430Y-94500001D01*
X131112858Y-94142858D02*
X130041430Y-93785715D01*
X130041430Y-94714287D01*
X130398572Y-95500001D02*
X130470001Y-95357143D01*
X130541430Y-95285715D01*
X130684287Y-95214286D01*
X130755715Y-95214286D01*
X130898572Y-95285715D01*
X130970001Y-95357143D01*
X131041430Y-95500001D01*
X131041430Y-95785715D01*
X130970001Y-95928572D01*
X130898572Y-96000001D01*
X130755715Y-96071429D01*
X130684287Y-96071429D01*
X130541430Y-96000001D01*
X130470001Y-95928572D01*
X130398572Y-95785715D01*
X130398572Y-95500001D01*
X130327144Y-95357143D01*
X130255715Y-95285715D01*
X130112858Y-95214286D01*
X129827144Y-95214286D01*
X129684287Y-95285715D01*
X129612858Y-95357143D01*
X129541430Y-95500001D01*
X129541430Y-95785715D01*
X129612858Y-95928572D01*
X129684287Y-96000001D01*
X129827144Y-96071429D01*
X130112858Y-96071429D01*
X130255715Y-96000001D01*
X130327144Y-95928572D01*
X130398572Y-95785715D01*
X129684287Y-96714286D02*
X129612858Y-96785714D01*
X129541430Y-96714286D01*
X129612858Y-96642857D01*
X129684287Y-96714286D01*
X129541430Y-96714286D01*
X130898572Y-97357143D02*
X130970001Y-97428572D01*
X131041430Y-97571429D01*
X131041430Y-97928572D01*
X130970001Y-98071429D01*
X130898572Y-98142858D01*
X130755715Y-98214286D01*
X130612858Y-98214286D01*
X130398572Y-98142858D01*
X129541430Y-97285715D01*
X129541430Y-98214286D01*
X131041430Y-99500000D02*
X131041430Y-99214286D01*
X130970001Y-99071429D01*
X130898572Y-99000000D01*
X130684287Y-98857143D01*
X130398572Y-98785714D01*
X129827144Y-98785714D01*
X129684287Y-98857143D01*
X129612858Y-98928571D01*
X129541430Y-99071429D01*
X129541430Y-99357143D01*
X129612858Y-99500000D01*
X129684287Y-99571429D01*
X129827144Y-99642857D01*
X130184287Y-99642857D01*
X130327144Y-99571429D01*
X130398572Y-99500000D01*
X130470001Y-99357143D01*
X130470001Y-99071429D01*
X130398572Y-98928571D01*
X130327144Y-98857143D01*
X130184287Y-98785714D01*
X131041430Y-100571428D02*
X131041430Y-100714285D01*
X130970001Y-100857142D01*
X130898572Y-100928571D01*
X130755715Y-101000000D01*
X130470001Y-101071428D01*
X130112858Y-101071428D01*
X129827144Y-101000000D01*
X129684287Y-100928571D01*
X129612858Y-100857142D01*
X129541430Y-100714285D01*
X129541430Y-100571428D01*
X129612858Y-100428571D01*
X129684287Y-100357142D01*
X129827144Y-100285714D01*
X130112858Y-100214285D01*
X130470001Y-100214285D01*
X130755715Y-100285714D01*
X130898572Y-100357142D01*
X130970001Y-100428571D01*
X131041430Y-100571428D01*
X129541430Y-102857142D02*
X130541430Y-102857142D01*
X130398572Y-102857142D02*
X130470001Y-102928570D01*
X130541430Y-103071428D01*
X130541430Y-103285713D01*
X130470001Y-103428570D01*
X130327144Y-103499999D01*
X129541430Y-103499999D01*
X130327144Y-103499999D02*
X130470001Y-103571428D01*
X130541430Y-103714285D01*
X130541430Y-103928570D01*
X130470001Y-104071428D01*
X130327144Y-104142856D01*
X129541430Y-104142856D01*
X129541430Y-104857142D02*
X130541430Y-104857142D01*
X130398572Y-104857142D02*
X130470001Y-104928570D01*
X130541430Y-105071428D01*
X130541430Y-105285713D01*
X130470001Y-105428570D01*
X130327144Y-105499999D01*
X129541430Y-105499999D01*
X130327144Y-105499999D02*
X130470001Y-105571428D01*
X130541430Y-105714285D01*
X130541430Y-105928570D01*
X130470001Y-106071428D01*
X130327144Y-106142856D01*
X129541430Y-106142856D01*
X131570001Y-75870000D02*
X131570001Y-124130000D01*
X138570000Y-75870000D02*
X128870001Y-75870000D01*
X138570000Y-124130000D02*
X128870001Y-124130000D01*
X131570001Y-124130000D02*
X130983580Y-123003496D01*
X131570001Y-124130000D02*
X132156422Y-123003496D01*
X131570001Y-75870000D02*
X130983580Y-76996504D01*
X131570001Y-75870000D02*
X132156422Y-76996504D01*
M02*
